<?xml version="1.0" encoding="UTF-8"?>
<svg id="Layer_2" data-name="Layer 2" xmlns="http://www.w3.org/2000/svg" xmlns:xlink="http://www.w3.org/1999/xlink" viewBox="0 0 392.83 486.7">
  <defs>
    <style>
      .cls-1, .cls-2 {
        opacity: .9;
      }

      .cls-3, .cls-2 {
        fill: #fff;
      }

      .cls-4 {
        fill: #f3d9b6;
      }

      .cls-5 {
        fill: none;
      }

      .cls-6 {
        fill: #f0c897;
      }

      .cls-7 {
        fill: #faa82a;
      }

      .cls-8 {
        fill: #030325;
      }

      .cls-9 {
        fill: #cba275;
      }

      .cls-10 {
        fill: #ee475f;
      }

      .cls-11 {
        fill: #f8d4a2;
      }

      .cls-12 {
        fill: #ab475f;
      }

      .cls-13 {
        fill: #0992e2;
      }

      .cls-14 {
        fill: #fc465d;
      }

      .cls-15 {
        fill: #0e1020;
      }

      .cls-16 {
        fill: url(#linear-gradient);
      }

      .cls-17 {
        clip-path: url(#clippath);
      }

      .cls-18 {
        fill: #ddaf7e;
      }
    </style>
    <linearGradient id="linear-gradient" x1="3821.67" y1="-899.22" x2="3901.73" y2="-979.27" gradientTransform="translate(4287.15 259.61) rotate(168.88) scale(1 -1)" gradientUnits="userSpaceOnUse">
      <stop offset=".19" stop-color="#ebd9b3"/>
      <stop offset=".94" stop-color="#7d6229"/>
    </linearGradient>
    <clipPath id="clippath">
      <path class="cls-5" d="M254.06,98.21l1.4-2.08,81.23-62.59c2.92,5.57,7.36,10.19,12.8,13.33,4.97,3.85,10.93,6.21,17.18,6.8l-27.21,98.87-1.4,2.08c-3.28.61-6.67-.11-9.41-2.02-8.73-5.76-3.05-14.22-11.78-19.97-8.73-5.76-14.19,2.53-22.92-3.23-8.73-5.76-2.93-14.24-11.66-20-8.73-5.76-14.31,2.55-22.92-3.23-2.77-1.83-4.68-4.71-5.3-7.98Z"/>
    </clipPath>
  </defs>
  <g id="Layer_1-2" data-name="Layer 1">
    <g>
      <g>
        <path class="cls-12" d="M92.02,480.76c3.23,2.4,7.77,1.76,10.13-1.43,21.61-29.17,79.45-21.54,109.36-61.91,22.72-30.67,3.66-75.51-7.27-85.6-.34-.38-.71-.72-1.12-1.02-3.23-2.4-7.77-1.76-10.13,1.43-1.28,1.74-1.71,3.97-1.15,6.07,0,0,0,0,0,.01,2.18,8.2,3.11,28.02-5.25,39.29-13.71,18.51-36.32,12.3-36.32,12.3,30.7-20.49.37-48.19,14.24-80.72h-.01c1.36-3.08.38-6.72-2.36-8.75-1.24-.91-2.72-1.41-4.25-1.44-.16,0-.32,0-.48,0-1.4-.1-37.86-2.3-63,31.65-10.27,13.86-20.86,42.87-23.61,57.17,0,.01-.01.03-.01.04,0,.01,0,.02,0,.03-.75,2.86.34,5.9,2.74,7.68,2.82,2.09,6.71,1.9,9.25-.46,0,0,.01-.02.02-.02.06-.05,11.47-9.82,25.39-9.58-20.13,27.18-21.01,70-19.11,89.4,0,.33.03.65.07.98.27,1.94,1.32,3.69,2.9,4.87Z"/>
        <path d="M96.39,486.7c-2.45,0-4.92-.76-7.04-2.33h0c-2.53-1.89-4.23-4.75-4.67-7.86-.06-.44-.1-.89-.11-1.35-.59-6.21-4.06-50.74,14.47-83.78-7.1,2.2-12.38,6.34-13.22,7.02-4.12,3.82-10.42,4.15-14.98.78-3.83-2.84-5.57-7.6-4.48-12.18v-.05s.02-.03.02-.05l.06-.31c2.93-14.8,13.49-43.99,24.34-58.63,25.7-34.69,62.88-33.67,66.67-33.47.17,0,.35,0,.52,0,2.47.04,4.84.84,6.84,2.31,3.39,2.52,5.11,6.48,4.77,10.45l.49.34-1.41,3.35c-5.44,12.76-3.41,24.84-1.45,36.53,2.24,13.33,4.54,27.04-5.94,38.9,6.63-.38,15.3-2.79,21.72-11.46,7.24-9.78,6.51-27.92,4.51-35.46l-.56-2.11.19-.26c-.15-2.69.63-5.35,2.26-7.55,3.83-5.18,11.2-6.24,16.43-2.37.59.44,1.15.93,1.64,1.47,6.12,5.76,14.03,20.36,17.47,37.35,2.96,14.66,3.66,35.94-9.78,54.09-17.03,22.99-42.57,31.17-65.1,38.4-18.1,5.8-35.2,11.28-44.26,23.52-2.28,3.07-5.8,4.7-9.38,4.7ZM94.7,477.14c1.23.91,2.95.69,3.83-.49,10.79-14.56,29.23-20.47,48.75-26.73,22.27-7.14,45.31-14.52,60.61-35.18,20.85-28.14,3-70.65-6.71-79.61l-.31-.31c-.13-.15-.28-.28-.44-.4-1.24-.92-2.96-.69-3.83.49-.47.64-.62,1.46-.42,2.25l.56,2.11-.06.09c1.89,9.54,2.46,28.87-6.48,40.94-15.37,20.75-40.08,14.24-41.13,13.96l-9.5-2.61,8.2-5.47c15.1-10.08,13.19-21.45,10.55-37.19-1.92-11.43-4.07-24.27.73-38.14l-.15-.1,1.47-3.37c.51-1.15.12-2.54-.93-3.32-.46-.34-1.05-.54-1.64-.55-.07,0-.13,0-.18,0h-.27s-.27,0-.27,0c-1.43-.1-35.45-2.05-59.08,29.84-9.87,13.32-20.24,42.06-22.8,55.29l-.12.54c-.22,1.04.21,2.15,1.1,2.81.99.73,2.33.74,3.27.05l.37-.32c.52-.45,12.87-10.91,28.42-10.67l8.74.16-5.2,7.02c-18.61,25.13-20.23,66.06-18.24,86.28l.02.41c0,.12.01.25.03.37.1.75.51,1.43,1.12,1.89Z"/>
      </g>
      <path class="cls-14" d="M83.94,391.81h0s.04-.05.07-.07c.61-.51,8.71-7.18,19.15-8.49,1.6-.2,2.65,1.6,1.77,2.95-16.22,24.84-16.88,61.42-15.22,78.38,0,.3.02.6.07.89.25,1.77,1.64,9.43,3.08,10.51,2.95,2.19,6.65-4.47,8.8-7.37,19.71-26.61,72.47-19.65,99.76-56.48,20.73-27.98,3.34-68.88-6.63-78.08-.31-.34-.65-.66-1.02-.93-2.95-2.19-7.09-1.6-9.24,1.3-1.17,1.58-1.56,3.62-1.05,5.54,0,0,0,0,0,.01,1.98,7.48,2.83,25.56-4.79,35.84-8.86,11.96-21.79,12.6-28.58,11.96-1.68-.16-2.34-2.27-1.04-3.36,22.05-18.41-2.59-42.71,9.48-71.02h-.01c1.24-2.81.34-6.13-2.15-7.99-1.13-.83-2.48-1.29-3.88-1.31-.15,0-.29,0-.44,0-1.28-.09-34.53-2.09-57.47,28.87-9.36,12.64-17.25,34.64-19.76,47.68,0,.01-2.18-5.72-1.61-1.45.66,4.92-1.55.48-1.53.61l3.96,10.6c1.62,3.09,5.75,3.77,8.28,1.38Z"/>
      <path d="M116.71,436.18c3.23,2.4,7.77,1.76,10.13-1.43,21.61-29.17,79.45-21.54,109.36-61.91,22.72-30.67,3.66-75.51-7.27-85.6-.34-.38-.71-.72-1.12-1.02-3.23-2.4-7.77-1.76-10.13,1.43-1.28,1.74-1.71,3.97-1.15,6.07,0,0,0,0,0,.01,2.18,8.2,3.11,28.02-5.25,39.29-13.71,18.51-36.32,12.3-36.32,12.3,30.7-20.49.37-48.19,14.24-80.72h-.01c1.36-3.08.38-6.72-2.36-8.75-1.24-.91-2.72-1.41-4.25-1.44-.16,0-.32,0-.48,0-1.4-.1-37.86-2.3-63,31.65-10.27,13.86-20.86,42.87-23.61,57.17,0,.01-.01.03-.01.04,0,.01,0,.02,0,.03-.75,2.86.34,5.9,2.74,7.68,2.82,2.09,6.71,1.9,9.25-.46,0,0,.01-.02.02-.02.06-.05,11.47-9.82,25.39-9.58-20.13,27.18-21.01,70-19.11,89.4,0,.33.03.65.07.98.27,1.94,1.32,3.69,2.9,4.87Z"/>
      <rect x="206.29" y="95.8" width="64.31" height="270.61" transform="translate(167.2 -93.22) rotate(33.51)"/>
      <g>
        <path class="cls-8" d="M379.58,1.53h0q-.03.76,0,0l-15.06,56.95-31.95-21.46L379.58,1.53c17.54-3.45,0,0,0,0Z"/>
        <polygon points="160.54 292.12 133.65 277.49 255.45 96.13 316.19 60.59 160.54 292.12"/>
        <polygon points="200.24 317.79 224.21 336.82 339.45 152.54 352.43 83.98 200.24 317.79"/>
        <polygon class="cls-13" points="342.53 55.95 173.51 311.25 152.33 297.23 288.91 82.14 342.53 55.95"/>
        <polygon class="cls-13" points="342.38 111.38 196.92 331.04 175.74 317.01 344.76 61.71 342.38 111.38"/>
        <path class="cls-16" d="M254.06,98.21l1.4-2.08,81.23-62.59c2.92,5.57,7.36,10.19,12.8,13.33,4.97,3.85,10.93,6.21,17.18,6.8l-27.21,98.87-1.4,2.08c-3.28.61-6.67-.11-9.41-2.02-8.73-5.76-3.05-14.22-11.78-19.97-8.73-5.76-14.19,2.53-22.92-3.23-8.73-5.76-2.93-14.24-11.66-20-8.73-5.76-14.31,2.55-22.92-3.23-2.77-1.83-4.68-4.71-5.3-7.98Z"/>
        <path class="cls-8" d="M378.58,3.53c-.03.76,0,0,0,0l-15.06,56.95"/>
        <g class="cls-17">
          <path class="cls-9" d="M368.09,51.96c1.35.41,2.69.82,4.04,1.23-.45,19.48-23.18,71-23.62,90.48-.12,5.19.1,10.42-.43,15.57-.3,2.84-1.84,5.54-2.82,8.3-.33.34-.66.67-.99,1.01,0,0,.09,0,.09,0-2.64.74-5.27,1.49-7.91,2.23.78-7.27,1.54-14.55,2.33-21.82,2.34-21.65,26.97-75.34,29.31-97Z"/>
          <path class="cls-4" d="M249.45,103.95c-.04-4.03-.07-8.06-.11-12.09,1.42-1.67,2.58-4.03,4.29-4.91,19.33-9.97,61.01-51.76,80.41-61.54.5-.25,1.11-.17,1.67-.25.87,1.39,1.74,2.77,2.61,4.16-1.2.47-2.49.73-3.58,1.43-21.02,13.69-64.29,59.46-85.29,73.19Z"/>
          <path class="cls-11" d="M281.62,116.83c-.58.39-1.16.78-1.75,1.17-14.02,6.32-25.16,1.17-30.43-14.05,21-13.73,64.27-59.51,85.29-73.19,1.08-.71,2.38-.96,3.58-1.43.23.08.46.13.7.15,2.1,2.46,4.21,4.93,6.31,7.39-12.36,13.8-47.02,59.61-59.32,73.49-1.68,1.9-2.94,4.31-4.39,6.48Z"/>
          <path class="cls-18" d="M313.64,142.89c.09-.68.18-1.37.27-2.05.96-1.97,2.11-3.85,2.86-5.92,6.71-18.45,35.63-68.98,42.3-87.45,3.01,1.5,6.02,3,9.03,4.49-2.35,21.65-26.97,75.34-29.31,97-.79,7.27-1.55,14.55-2.33,21.82-13.34.08-21.91-8.23-23.37-22.82-.16-1.64.35-3.38.56-5.07Z"/>
          <path class="cls-6" d="M359.07,47.47c-6.66,18.48-35.59,69-42.3,87.45-.75,2.07-1.9,3.95-2.86,5.92-13.03,12.33-30.36.17-32.44-13.82-.49-3.28.07-6.78.15-10.19,1.45-2.17,2.71-4.58,4.39-6.48,12.3-13.88,46.96-59.68,59.32-73.49,4.58,3.54,9.16,7.07,13.74,10.61Z"/>
        </g>
      </g>
      <path d="M107.22,70.81c-2.31-.46-4.68-.49-6.99-.01-4.8,1-8.57,4.3-11.34,8.55-2.79,4.24-4.79,9.55-6.34,15.65-1.84,7.23-2.98,15.65-3.54,24.63-7.11-.58-13.75-.66-19.78-.22-8.05.58-15.01,2.05-20.62,4.69-5.6,2.63-10.02,6.65-11.82,12.09-1.88,5.65-.05,11.6,3.1,17.03,3.18,5.41,7.9,10.54,13.41,14.64,1.23.94,2.85,1.14,4.27.53,1.41-.6,2.39-1.92,2.57-3.46.16-1.53-.5-3.02-1.75-3.93-4.62-3.42-8.69-7.87-11.14-12.08-2.44-4.21-3.07-7.94-2.36-10.05.9-2.72,3.14-5.08,7.35-7.05,4.21-1.99,10.25-3.39,17.59-3.9,5.58-.4,11.93-.32,18.81.27-.15,7.99.09,16.25.78,24.5-19.79,20.2-32.61,39.41-36.64,55.17-2.48,9.7-1.21,18.59,4.11,24.57,3.63,4.07,8.65,6.6,14.5,6.99,5.85.39,12.47-1.04,20.6-4.04,1.47-.5,2.53-1.74,2.81-3.27.28-1.51-.3-3.07-1.49-4.03-1.2-.98-2.82-1.25-4.25-.68-7.54,2.75-13.14,3.79-17.11,3.53-3.96-.27-6.34-1.51-8.68-4.17-3-3.36-4.26-8.92-2.24-16.77,3.05-11.94,13.27-28.39,29.55-46.13.47,3.7,1.02,7.36,1.68,10.96,4.66,26.05,13.3,48.7,23.38,64.7,5.04,7.99,10.44,14.34,16.14,18.59,5.71,4.26,12,6.53,18.19,5.26l.26-.07.24-.07c5.46-1.85,9.73-6.22,12.98-11.98,3.23-5.74,5.58-12.99,7.12-21.46,3.1-16.92,7.86,33.19,3.87,9.32-.38-2.32-2.58-3.88-4.91-3.49-2.32.38-3.88,2.58-3.49,4.91,3.84,23.03-1-27.86-3.86-12.27-1.43,7.79-3.58,14.21-6.16,18.79-2.51,4.44-5.3,6.92-8.03,7.95-3.06.53-6.73-.45-11.11-3.73-4.47-3.35-9.38-8.94-14.03-16.33-9.3-14.75-17.71-36.56-22.22-61.64-.99-5.64-1.75-11.53-2.33-17.47,3.71-3.7,7.58-7.44,11.78-11.19,4.17-3.71,8.38-7.2,12.58-10.45,1.03.27,2.07.5,3.12.78,4.42,1.19,8.93,2.57,13.49,4.07,24.27,8.03,45.09,18.81,58.8,29.5,6.87,5.35,11.94,10.69,14.78,15.37,2.84,4.68,3.44,8.38,2.46,11.38-.92,2.73-2.93,5.08-6.61,7.11-3.7,2.03-9.03,3.59-15.78,4.28-1.57.11-2.96,1.04-3.61,2.46-.67,1.42-.5,3.09.45,4.35.94,1.24,2.47,1.89,4.01,1.67,7.57-.79,13.96-2.5,19.04-5.28,5.07-2.81,8.91-6.87,10.59-11.93,1.97-6,.38-12.47-3.27-18.49-3.64-6-9.4-11.88-16.8-17.65-14.82-11.55-36.35-22.59-61.39-30.87-3.54-1.18-7.05-2.19-10.55-3.2,9.02-6.35,17.89-11.6,26.09-15.52,14.62-6.94,27.27-9.45,34.27-7.81h.02c2.6.61,4.38,1.65,5.71,3.12,4.27,4.81,6.16,15.08-4.47,26.02-1.14,1.09-1.6,2.7-1.19,4.21.4,1.51,1.6,2.68,3.12,3.05,1.53.35,3.13-.14,4.17-1.31,12.98-13.36,12.29-29.16,4.73-37.63h-.02c-2.61-2.95-6.19-4.84-10.11-5.76h-.02c-10.63-2.48-24.35,1.04-39.87,8.41-10.46,4.99-21.72,11.9-33.03,20.39-8.07-1.93-15.87-3.4-23.25-4.37.51-8.73,1.55-16.82,3.24-23.44,1.41-5.53,3.22-10.06,5.21-13.11,1.99-3.03,3.92-4.43,5.92-4.85,1.17-.23,2.33-.24,3.64.01,4.3.83,11.31,7.6,17.98,17.13.88,1.28,2.36,1.98,3.88,1.84,1.53-.12,2.88-1.06,3.52-2.45.64-1.4.48-3.03-.4-4.27-7.03-10.02-14-18.79-23.34-20.6ZM102.14,131.7c-2.57,2.13-5.13,4.29-7.69,6.58-2.42,2.15-4.67,4.31-6.95,6.47-.27-5.31-.33-10.5-.26-15.61,4.8.64,9.77,1.5,14.9,2.56ZM123.63,150.04c-6.81-1.87-13.85,2.15-15.71,8.96s2.15,13.85,8.96,15.71c6.81,1.87,13.85-2.15,15.71-8.96s-2.15-13.85-8.96-15.71Z"/>
      <path d="M6.35,389.94l374.95-39.02c2.99-.31,5.23-2.87,5.15-5.87l-2.36-91.69c-.09-3.37-3.04-5.94-6.38-5.57l-331.76,36.86c-2.05.23-28.82,57.26-29.64,59.15L.49,381.93c-1.76,4.04,1.49,8.47,5.87,8.01Z"/>
      <polygon points="135.36 233.97 323.27 225.77 313.44 283.4 61.26 292.12 135.36 233.97"/>
      <g>
        <polygon class="cls-15" points="84.02 188.66 151.81 181.44 179.25 327.44 110.75 334.74 109.79 317.81 95.17 319.37 89.04 337.06 15.86 344.86 84.02 188.66"/>
        <path class="cls-15" d="M221.81,325.74c-115.13-8.08-65.36-190.6,59.83-150.72l-5.99,71.89-.73-.52-7.89,66.96c-16.8,7.78-29.99,12.49-45.22,12.39ZM245.66,231.13c-17.09-2.53-34.05,30.15-10.64,32.07,12.55.89,23.72-13.55,32.1-22.35-6.19-4.71-14.22-10.23-21.46-9.71Z"/>
        <path class="cls-15" d="M309.84,316.27c-16.04.61-37.29-6.74-55.38-15.39l24.15-50.87c-27.04-35.76,7.11-86.29,51.97-89.73,20.87-2.82,41.13,3.28,62.24,12.9l-22.7,47.81c39.04,38.18-9.39,98.2-60.29,95.28Z"/>
        <path class="cls-7" d="M363.4,211.85c-.57,1.21-2.1,1.59-3.19.81-7.52-5.37-16.79-7.9-25.89-6.93-4.98.53-8.8,3.81-8.8,7.64s2.68,5.27,13.78,6.76c8.8,1.17,16.08,3.45,20.86,6.01,8.61,5.02,13.97,15.55,13.97,27.22,0,25.65-25.07,49.19-55.7,52.45-15.34,1.64-29.61-.95-48.5-9.04-1.11-.48-1.6-1.79-1.08-2.88l14.97-31.53c.61-1.29,2.32-1.65,3.36-.67,7.69,7.18,18.88,10.8,29.92,9.62,6.32-.67,10.53-3.99,10.53-8.4s-3.64-6.89-11.87-7.92c-9-.96-13.59-2-18.37-3.78-11.87-4.67-18.18-14.91-18.18-29.45,0-25.65,23.35-48.43,52.45-51.53,15.46-1.65,28.44.33,45.57,7.27,1.14.46,1.65,1.79,1.12,2.9l-14.94,31.47Z"/>
        <path class="cls-7" d="M80.32,327.93l-44.75,4.77c-1.63.17-2.84-1.48-2.19-2.98l56.98-130.59c.31-.7.97-1.19,1.73-1.27l49.63-5.29c1.11-.12,2.12.64,2.33,1.73l22.94,122.07c.23,1.23-.63,2.39-1.88,2.52l-42.74,4.56c-1.22.13-2.29-.79-2.36-2.01l-.7-12.44c-.07-1.22-1.15-2.14-2.36-2.01l-27.8,2.96c-.82.09-1.52.64-1.79,1.43l-5.24,15.12c-.27.78-.97,1.34-1.79,1.43ZM114.04,278.02c1.16-.12,2-1.15,1.91-2.31l-1.74-20.68c-.19-2.47-.38-5.89-.38-8.96,0-4.79,0-6.12.57-10.4h0c-.91.1-1.66.76-1.86,1.65-1.4,6.29-2.75,11.06-5.41,18.45l-7.45,20.67c-.54,1.49.67,3.02,2.24,2.85l12.13-1.29Z"/>
        <path class="cls-7" d="M267.44,224.98c-.13,1.57-1.88,2.49-3.22,1.66-7.38-4.52-14.58-6.15-22.53-5.3-15.12,1.61-28.14,16.02-28.14,30.94,0,13.4,10.53,22.23,24.5,20.74,7.86-.84,14.56-3.88,21.05-9.54,1.47-1.28,3.74-.06,3.51,1.87l-4.71,39.95c-.09.75-.57,1.41-1.27,1.71-11.78,5.18-19.06,7.4-27.97,8.35-14.74,1.57-28.71-1.92-39.81-9.92-14.16-10.36-21.44-26.43-21.44-46.91,0-40.58,30.05-74.02,70.44-78.33,10.33-1.1,20.82-.51,31.33,1.97,1.03.24,1.72,1.21,1.63,2.26l-3.38,40.54Z"/>
        <g class="cls-1">
          <path class="cls-3" d="M270.72,183.61l-3.93,1.07c-2.58-.07-5.09-.09-7.54-.05-6.87-.66-16.23-1.09-23.61.27-11.82,2.17-34.51,11.23-42.95,21.81-32.23,31.27-17.01,84.67-17.01,84.67l-2.9-5.7c-3.55-7.84-5.36-16.94-5.36-27.13,0-40.58,30.05-74.03,70.44-78.33,10.33-1.1,20.83-.51,31.33,1.96.75.18,1.31.74,1.53,1.43Z"/>
        </g>
      </g>
      <circle class="cls-7" cx="120.09" cy="162.34" r="9.46"/>
      <circle class="cls-10" cx="61.26" cy="101.24" r="4.82"/>
      <circle class="cls-10" cx="147.73" cy="86.96" r="4.82"/>
      <g>
        <path class="cls-3" d="M29.64,346.15l21.22-2.11-1.31,5.41-15.04,1.5-1.72,7.08,13.19-1.31-1.3,5.35-13.19,1.31-3.13,12.91-6.18.61,7.46-30.76Z"/>
        <path class="cls-3" d="M54.92,343.6l6.32-.63-4.59,18.92c-.51,2.12-.65,3.64-.4,4.56.33,1.65,1.76,2.35,4.28,2.1,2.51-.25,4.35-1.27,5.52-3.08.72-1.02,1.34-2.59,1.85-4.71l4.59-18.92,6.32-.63-4.59,18.93c-.79,3.27-1.9,5.87-3.33,7.79-2.64,3.53-6.53,5.54-11.68,6.06-5.15.51-8.24-.81-9.27-3.97-.54-1.73-.41-4.23.38-7.5l4.59-18.93Z"/>
        <path class="cls-3" d="M106.41,338.47l-1.32,5.45-8.91.89-6.15,25.35-6.26.62,6.15-25.35-8.95.89,1.32-5.45,24.11-2.4Z"/>
        <path class="cls-3" d="M110.04,338.11l6.32-.63-4.59,18.92c-.51,2.12-.65,3.64-.4,4.56.33,1.65,1.76,2.35,4.28,2.1,2.51-.25,4.35-1.28,5.52-3.08.72-1.02,1.34-2.59,1.85-4.71l4.59-18.92,6.32-.63-4.59,18.93c-.79,3.27-1.9,5.87-3.33,7.79-2.64,3.53-6.53,5.54-11.68,6.06s-8.24-.81-9.27-3.97c-.54-1.73-.41-4.23.38-7.5l4.59-18.93Z"/>
        <path class="cls-3" d="M158.79,334.04c.98.38,1.73,1,2.26,1.88.44.72.73,1.53.87,2.44.14.91.06,1.97-.23,3.18-.35,1.46-1.06,2.94-2.12,4.42-1.06,1.49-2.48,2.6-4.26,3.35,1.23.43,2.01,1.15,2.33,2.14.32,1,.21,2.57-.31,4.73l-.5,2.07c-.34,1.41-.52,2.36-.53,2.85-.03.78.21,1.32.72,1.64l-.19.77-6.87.68c-.02-.66-.02-1.2,0-1.61.05-.85.18-1.72.38-2.63l.65-2.86c.45-1.96.44-3.24-.03-3.83-.47-.59-1.57-.8-3.3-.63l-6.07.6-2.93,12.08-6.08.6,7.47-30.8,14.24-1.42c2.02-.16,3.53-.05,4.5.33ZM144.83,339.87l-2.01,8.27,6.69-.67c1.33-.13,2.37-.4,3.11-.8,1.32-.7,2.19-1.92,2.6-3.64.45-1.87.19-3.06-.79-3.59-.55-.3-1.47-.38-2.74-.26l-6.87.68Z"/>
        <path class="cls-3" d="M190.46,335.44l-15.75,1.57-1.59,6.54,14.46-1.44-1.3,5.35-14.46,1.44-1.92,7.92,16.48-1.64-1.34,5.54-22.55,2.24,7.47-30.8,21.83-2.17-1.32,5.45Z"/>
        <path class="cls-3" d="M208.16,349.13c-.15,1.39-.03,2.4.37,3.04.72,1.17,2.34,1.62,4.84,1.38,1.5-.15,2.75-.44,3.77-.86,1.93-.82,3.1-2.1,3.53-3.84.25-1.02,0-1.76-.73-2.23-.74-.46-2-.8-3.78-1.03l-3.04-.41c-2.99-.41-4.98-.98-5.96-1.71-1.66-1.22-2.12-3.34-1.39-6.37.67-2.76,2.21-5.15,4.61-7.17,2.41-2.02,5.51-3.22,9.31-3.6,3.17-.32,5.67.28,7.5,1.77,1.82,1.5,2.4,3.88,1.71,7.14l-5.98.59c.34-1.84-.14-3.08-1.44-3.71-.87-.42-2.04-.55-3.52-.41-1.64.16-3.03.63-4.18,1.39-1.14.77-1.86,1.75-2.15,2.95-.27,1.1.02,1.87.85,2.32.53.3,1.75.59,3.65.88l4.91.75c2.15.33,3.69.9,4.61,1.72,1.42,1.27,1.8,3.28,1.14,6.02-.68,2.81-2.3,5.26-4.85,7.32-2.55,2.07-5.75,3.29-9.59,3.68-3.92.39-6.78-.22-8.58-1.83-1.8-1.61-2.31-4.01-1.54-7.22l5.94-.59Z"/>
        <path class="cls-3" d="M238.49,328.48c3.01-2.77,6.37-4.34,10.07-4.71,4.96-.49,8.16.85,9.63,4.02.8,1.78,1.02,3.63.64,5.54l-6.22.62c-.04-1.44-.27-2.5-.71-3.19-.78-1.23-2.26-1.73-4.44-1.52-2.22.22-4.19,1.34-5.93,3.35-1.74,2.01-3.02,4.75-3.86,8.2-.84,3.46-.79,5.98.14,7.56.93,1.59,2.44,2.28,4.52,2.07,2.13-.21,3.94-1.11,5.42-2.7.81-.86,1.61-2.1,2.41-3.73l6.18-.62c-1.35,3.41-3.37,6.28-6.07,8.6-2.7,2.32-5.76,3.65-9.18,3.99-4.24.42-7.22-.67-8.96-3.27-1.73-2.62-1.99-6.41-.79-11.38,1.3-5.38,3.69-9.66,7.15-12.84Z"/>
        <path class="cls-3" d="M258.78,353.38l7.47-30.8,6.18-.61-2.85,11.74,11.57-1.15,2.85-11.74,6.18-.61-7.47,30.8-6.18.61,3.33-13.75-11.57,1.15-3.33,13.75-6.18.61Z"/>
        <path class="cls-3" d="M312.27,345.38c-2.83,2.62-6.37,4.14-10.62,4.56-4.25.42-7.21-.45-8.88-2.62-2.3-2.64-2.78-6.72-1.44-12.25,1.37-5.64,3.9-10.03,7.6-13.16,2.83-2.62,6.37-4.14,10.63-4.56,4.25-.42,7.21.45,8.88,2.62,2.32,2.53,2.79,6.62,1.42,12.26-1.34,5.53-3.87,9.91-7.58,13.15ZM309.52,341.09c1.9-2.02,3.28-4.77,4.12-8.24.84-3.46.76-6.05-.23-7.8-.99-1.74-2.72-2.49-5.18-2.25-2.46.25-4.66,1.38-6.58,3.41s-3.31,4.78-4.15,8.24c-.84,3.47-.76,6.07.26,7.8,1.01,1.73,2.75,2.48,5.21,2.23,2.46-.25,4.65-1.38,6.55-3.4Z"/>
        <path class="cls-3" d="M344.44,342.18c-2.83,2.62-6.37,4.14-10.62,4.56-4.25.42-7.21-.45-8.88-2.62-2.3-2.64-2.78-6.72-1.44-12.25,1.37-5.64,3.9-10.03,7.6-13.16,2.83-2.62,6.37-4.14,10.63-4.56,4.25-.42,7.21.45,8.88,2.62,2.32,2.53,2.79,6.62,1.42,12.26-1.34,5.53-3.87,9.92-7.58,13.15ZM341.68,337.89c1.9-2.02,3.28-4.77,4.12-8.24.84-3.46.76-6.05-.23-7.8-.99-1.74-2.72-2.49-5.18-2.25-2.46.25-4.66,1.38-6.58,3.41-1.92,2.03-3.3,4.77-4.15,8.24-.84,3.47-.76,6.07.25,7.81,1.01,1.73,2.75,2.48,5.21,2.23,2.46-.25,4.65-1.38,6.55-3.4Z"/>
        <path class="cls-3" d="M360.49,313.2l6.22-.62-6.13,25.26,14.86-1.48-1.34,5.54-21.08,2.1,7.47-30.8Z"/>
      </g>
      <polygon class="cls-15" points="274.96 175.17 306.19 167.08 274.96 197.82 274.96 175.17"/>
      <path class="cls-2" d="M144.05,194.3c-.21-1.1-1.22-1.85-2.33-1.73l-49.63,5.29c-.76.08-1.43.57-1.73,1.27l-56.98,130.59c-.54,1.24.19,2.56,1.38,2.9l59.92-130.52,49.67-6.25-.29-1.56Z"/>
      <path class="cls-2" d="M324.58,268.61c-1.83,1.4-4.4,2.36-7.48,2.69-11.03,1.18-22.23-2.44-29.92-9.62-1.05-.98-2.75-.62-3.36.67l-13.32,28.06.33.96,15.76-26.15s12.37,8.17,26.05,8.17c3.53,0,7.69-.91,10.52-2.29,1.66-.81,1.78-.35,1.42-2.49Z"/>
      <path class="cls-2" d="M376.89,177.48c-17.14-6.94-30.12-8.91-45.57-7.27-29.09,3.1-52.45,25.88-52.45,51.53,0,12.03,4.33,21.1,12.54,26.53,1.7-1.51-.19-4.15-.84-4.75-12.52-11.71-7.36-32.27-4.42-37.99,3.49-6.78,13.02-18.25,23.73-24.09,13.71-7.47,26.52-7.92,39.36-7.69,9.67.17,22.6,5.02,28.39,7.41l.37-.77c.53-1.11.02-2.44-1.12-2.9Z"/>
    </g>
  </g>
</svg>